<?xml version="1.0" standalone="no"?>
<!DOCTYPE svg PUBLIC "-//W3C//DTD SVG 20010904//EN"
 "http://www.w3.org/TR/2001/REC-SVG-20010904/DTD/svg10.dtd">
<svg version="1.0" xmlns="http://www.w3.org/2000/svg"
 width="1024.000000pt" height="1024.000000pt" viewBox="0 0 1024.000000 1024.000000"
 preserveAspectRatio="xMidYMid meet">
<metadata>
Created by potrace 1.16, written by Peter Selinger 2001-2019
</metadata>
<g transform="translate(0.000000,1024.000000) scale(0.100000,-0.100000)"
fill="#000000" stroke="none">
<path d="M1490 5120 l0 -4240 3630 0 3630 0 0 4240 0 4240 -3630 0 -3630 0 0
-4240z m5622 3780 c394 -131 647 -355 754 -667 36 -104 45 -183 20 -183 -8 0
-46 47 -85 105 -207 303 -391 474 -726 674 -84 51 -159 99 -167 108 -12 15 -8
16 36 10 27 -4 103 -25 168 -47z m-3468 -2890 c46 -55 46 -135 0 -146 -81 -20
-161 99 -104 156 30 30 73 26 104 -10z m417 -54 c23 -50 -19 -106 -56 -76 -19
16 -19 34 0 70 19 36 42 38 56 6z m2863 -463 c96 -35 136 -103 81 -139 -31
-20 -107 -13 -145 14 -38 28 -63 84 -50 116 12 32 43 34 114 9z m673 -298
c325 -108 626 -353 760 -619 71 -141 115 -316 80 -316 -9 0 -53 55 -102 125
-120 174 -185 253 -316 380 -126 123 -223 199 -379 300 -58 37 -135 87 -172
111 -38 24 -68 49 -68 55 0 17 81 2 197 -36z m-3953 -2745 c46 -55 46 -135 0
-146 -81 -20 -161 99 -104 156 30 30 73 26 104 -10z m414 -42 c17 -17 15 -73
-3 -88 -18 -15 -45 -10 -59 12 -8 13 -6 26 7 52 17 37 34 45 55 24z"/>
</g>
</svg>
